<mxfile host="Electron" modified="2024-02-27T12:17:09.450Z" agent="Mozilla/5.0 (Windows NT 10.0; Win64; x64) AppleWebKit/537.36 (KHTML, like Gecko) draw.io/23.1.5 Chrome/120.0.6099.109 Electron/28.1.0 Safari/537.36" etag="uhkzC4E-oiduS3Tax0m2" version="23.1.5" type="device">
  <diagram name="Page-1" id="PBFaabsFGjWN9c8YTTGt">
    <mxGraphModel dx="1098" dy="702" grid="1" gridSize="10" guides="1" tooltips="1" connect="1" arrows="1" fold="1" page="1" pageScale="1" pageWidth="850" pageHeight="1100" math="0" shadow="0">
      <root>
        <mxCell id="0" />
        <mxCell id="1" parent="0" />
        <mxCell id="mcZOrLfcwNk9v_cB0zbB-34" value="" style="rounded=1;whiteSpace=wrap;html=1;strokeColor=#999999;" parent="1" vertex="1">
          <mxGeometry x="40" y="600" width="170" height="50" as="geometry" />
        </mxCell>
        <mxCell id="mcZOrLfcwNk9v_cB0zbB-7" value="&lt;font color=&quot;#4c0099&quot; face=&quot;Verdana&quot; style=&quot;font-size: 14px;&quot;&gt;&lt;b&gt;ShoppingCart&lt;/b&gt;&lt;/font&gt;" style="swimlane;fontStyle=0;childLayout=stackLayout;horizontal=1;startSize=30;horizontalStack=0;resizeParent=1;resizeParentMax=0;resizeLast=0;collapsible=1;marginBottom=0;whiteSpace=wrap;html=1;fillColor=#e1d5e7;strokeColor=#9673a6;strokeWidth=2;" parent="1" vertex="1">
          <mxGeometry x="40" y="40" width="460" height="130" as="geometry" />
        </mxCell>
        <mxCell id="mcZOrLfcwNk9v_cB0zbB-8" value="&lt;font face=&quot;Verdana&quot; color=&quot;#4c0099&quot;&gt;&lt;span style=&quot;font-size: 14px;&quot;&gt;&lt;b&gt;ShoppingCart(&lt;/b&gt;&lt;i&gt;IShoppingCartPurchaseFactory&lt;/i&gt; factory&lt;b&gt;)&lt;br&gt;void &lt;/b&gt;CalculateCosts()&lt;br&gt;&lt;/span&gt;&lt;/font&gt;" style="text;strokeColor=#9673a6;fillColor=#e1d5e7;align=center;verticalAlign=middle;spacingLeft=4;spacingRight=4;overflow=hidden;points=[[0,0.5],[1,0.5]];portConstraint=eastwest;rotatable=0;whiteSpace=wrap;html=1;strokeWidth=2;" parent="mcZOrLfcwNk9v_cB0zbB-7" vertex="1">
          <mxGeometry y="30" width="460" height="100" as="geometry" />
        </mxCell>
        <mxCell id="mcZOrLfcwNk9v_cB0zbB-9" value="&lt;font size=&quot;1&quot; face=&quot;Verdana&quot; color=&quot;#4c0099&quot;&gt;&lt;b style=&quot;font-size: 16px;&quot;&gt;Abstract Factory&lt;/b&gt;&lt;/font&gt;" style="swimlane;fontStyle=0;childLayout=stackLayout;horizontal=1;startSize=30;horizontalStack=0;resizeParent=1;resizeParentMax=0;resizeLast=0;collapsible=1;marginBottom=0;whiteSpace=wrap;html=1;fillColor=#e1d5e7;strokeColor=#9673a6;strokeWidth=2;" parent="1" vertex="1">
          <mxGeometry x="40" y="240" width="460" height="130" as="geometry" />
        </mxCell>
        <mxCell id="mcZOrLfcwNk9v_cB0zbB-10" value="&lt;font face=&quot;Verdana&quot; color=&quot;#4c0099&quot;&gt;&lt;span style=&quot;font-size: 14px;&quot;&gt;&lt;b&gt;IShippingCostsService &lt;/b&gt;CreateShippingCostsService()&lt;b&gt;&lt;br&gt;IDiscountService&amp;nbsp;&lt;/b&gt;CreateDiscountService()&lt;br&gt;&lt;/span&gt;&lt;/font&gt;" style="text;strokeColor=#9673a6;fillColor=#e1d5e7;align=center;verticalAlign=middle;spacingLeft=4;spacingRight=4;overflow=hidden;points=[[0,0.5],[1,0.5]];portConstraint=eastwest;rotatable=0;whiteSpace=wrap;html=1;strokeWidth=2;" parent="mcZOrLfcwNk9v_cB0zbB-9" vertex="1">
          <mxGeometry y="30" width="460" height="100" as="geometry" />
        </mxCell>
        <mxCell id="mcZOrLfcwNk9v_cB0zbB-12" value="" style="endArrow=classic;html=1;rounded=1;entryX=0.5;entryY=0;entryDx=0;entryDy=0;exitX=0.5;exitY=1;exitDx=0;exitDy=0;strokeWidth=3;curved=0;strokeColor=#4C0099;dashed=1;" parent="1" source="mcZOrLfcwNk9v_cB0zbB-7" target="mcZOrLfcwNk9v_cB0zbB-9" edge="1">
          <mxGeometry width="50" height="50" relative="1" as="geometry">
            <mxPoint x="330" y="400" as="sourcePoint" />
            <mxPoint x="380" y="350" as="targetPoint" />
          </mxGeometry>
        </mxCell>
        <mxCell id="mcZOrLfcwNk9v_cB0zbB-14" value="&lt;font size=&quot;1&quot; color=&quot;#009900&quot; face=&quot;Verdana&quot;&gt;&lt;b style=&quot;font-size: 16px;&quot;&gt;Concrete Factory&lt;/b&gt;&lt;/font&gt;" style="swimlane;fontStyle=0;childLayout=stackLayout;horizontal=1;startSize=30;horizontalStack=0;resizeParent=1;resizeParentMax=0;resizeLast=0;collapsible=1;marginBottom=0;whiteSpace=wrap;html=1;fillColor=#D5E8D4;strokeColor=#82B366;strokeWidth=2;" parent="1" vertex="1">
          <mxGeometry x="40" y="430" width="460" height="130" as="geometry" />
        </mxCell>
        <mxCell id="mcZOrLfcwNk9v_cB0zbB-15" value="&lt;font face=&quot;Verdana&quot;&gt;&lt;span style=&quot;font-size: 14px;&quot;&gt;&lt;font color=&quot;#009900&quot;&gt;&lt;b style=&quot;&quot;&gt;IShippingCostsService &lt;/b&gt;CreateShippingCostsService()&lt;b style=&quot;&quot;&gt;&lt;br&gt;IDiscountService&amp;nbsp;&lt;/b&gt;CreateDiscountService()&lt;/font&gt;&lt;br&gt;&lt;/span&gt;&lt;/font&gt;" style="text;strokeColor=#82B366;fillColor=#D5E8D4;align=center;verticalAlign=middle;spacingLeft=4;spacingRight=4;overflow=hidden;points=[[0,0.5],[1,0.5]];portConstraint=eastwest;rotatable=0;whiteSpace=wrap;html=1;strokeWidth=2;" parent="mcZOrLfcwNk9v_cB0zbB-14" vertex="1">
          <mxGeometry y="30" width="460" height="100" as="geometry" />
        </mxCell>
        <mxCell id="mcZOrLfcwNk9v_cB0zbB-16" value="" style="endArrow=none;html=1;rounded=1;exitX=0.5;exitY=1;exitDx=0;exitDy=0;entryX=0.5;entryY=0;entryDx=0;entryDy=0;curved=0;strokeWidth=3;strokeColor=#009900;" parent="1" source="mcZOrLfcwNk9v_cB0zbB-9" target="mcZOrLfcwNk9v_cB0zbB-14" edge="1">
          <mxGeometry width="50" height="50" relative="1" as="geometry">
            <mxPoint x="730" y="370" as="sourcePoint" />
            <mxPoint x="800" y="580" as="targetPoint" />
          </mxGeometry>
        </mxCell>
        <mxCell id="mcZOrLfcwNk9v_cB0zbB-17" value="&lt;font size=&quot;1&quot; face=&quot;Verdana&quot; color=&quot;#4c0099&quot;&gt;&lt;b style=&quot;font-size: 16px;&quot;&gt;Abstract Product B&lt;/b&gt;&lt;/font&gt;" style="swimlane;fontStyle=0;childLayout=stackLayout;horizontal=1;startSize=30;horizontalStack=0;resizeParent=1;resizeParentMax=0;resizeLast=0;collapsible=1;marginBottom=0;whiteSpace=wrap;html=1;fillColor=#E1D5E7;strokeColor=#9673A6;strokeWidth=2;" parent="1" vertex="1">
          <mxGeometry x="580" y="320" width="260" height="90" as="geometry" />
        </mxCell>
        <mxCell id="mcZOrLfcwNk9v_cB0zbB-18" value="&lt;font color=&quot;#4c0099&quot; style=&quot;font-size: 14px;&quot; face=&quot;Verdana&quot;&gt;&lt;b style=&quot;&quot;&gt;decimal &lt;/b&gt;ShippingCosts&lt;/font&gt;" style="text;strokeColor=#9673A6;fillColor=#E1D5E7;align=center;verticalAlign=middle;spacingLeft=4;spacingRight=4;overflow=hidden;points=[[0,0.5],[1,0.5]];portConstraint=eastwest;rotatable=0;whiteSpace=wrap;html=1;strokeWidth=2;" parent="mcZOrLfcwNk9v_cB0zbB-17" vertex="1">
          <mxGeometry y="30" width="260" height="60" as="geometry" />
        </mxCell>
        <mxCell id="mcZOrLfcwNk9v_cB0zbB-19" value="&lt;font size=&quot;1&quot; face=&quot;Verdana&quot; color=&quot;#4c0099&quot;&gt;&lt;b style=&quot;font-size: 16px;&quot;&gt;Abstract Product A&lt;/b&gt;&lt;/font&gt;" style="swimlane;fontStyle=0;childLayout=stackLayout;horizontal=1;startSize=30;horizontalStack=0;resizeParent=1;resizeParentMax=0;resizeLast=0;collapsible=1;marginBottom=0;whiteSpace=wrap;html=1;fillColor=#E1D5E7;strokeColor=#9673A6;strokeWidth=2;" parent="1" vertex="1">
          <mxGeometry x="580" y="200" width="260" height="90" as="geometry" />
        </mxCell>
        <mxCell id="mcZOrLfcwNk9v_cB0zbB-20" value="&lt;font color=&quot;#4c0099&quot; style=&quot;font-size: 14px;&quot; face=&quot;Verdana&quot;&gt;&lt;b style=&quot;&quot;&gt;int &lt;/b&gt;DiscountPercentage&lt;/font&gt;" style="text;strokeColor=#9673A6;fillColor=#E1D5E7;align=center;verticalAlign=middle;spacingLeft=4;spacingRight=4;overflow=hidden;points=[[0,0.5],[1,0.5]];portConstraint=eastwest;rotatable=0;whiteSpace=wrap;html=1;strokeWidth=2;" parent="mcZOrLfcwNk9v_cB0zbB-19" vertex="1">
          <mxGeometry y="30" width="260" height="60" as="geometry" />
        </mxCell>
        <mxCell id="mcZOrLfcwNk9v_cB0zbB-21" value="&lt;font size=&quot;1&quot; color=&quot;#009900&quot; face=&quot;Verdana&quot; style=&quot;&quot;&gt;&lt;b style=&quot;font-size: 16px;&quot;&gt;Concrete Product B&lt;/b&gt;&lt;/font&gt;" style="swimlane;fontStyle=0;childLayout=stackLayout;horizontal=1;startSize=30;horizontalStack=0;resizeParent=1;resizeParentMax=0;resizeLast=0;collapsible=1;marginBottom=0;whiteSpace=wrap;html=1;fillColor=#d5e8d4;strokeColor=#82b366;strokeWidth=2;" parent="1" vertex="1">
          <mxGeometry x="580" y="80" width="260" height="90" as="geometry" />
        </mxCell>
        <mxCell id="mcZOrLfcwNk9v_cB0zbB-22" value="&lt;font color=&quot;#009900&quot; style=&quot;font-size: 14px;&quot; face=&quot;Verdana&quot;&gt;&lt;b style=&quot;&quot;&gt;int &lt;/b&gt;DiscountPercentage&lt;/font&gt;" style="text;strokeColor=#82b366;fillColor=#d5e8d4;align=center;verticalAlign=middle;spacingLeft=4;spacingRight=4;overflow=hidden;points=[[0,0.5],[1,0.5]];portConstraint=eastwest;rotatable=0;whiteSpace=wrap;html=1;strokeWidth=2;" parent="mcZOrLfcwNk9v_cB0zbB-21" vertex="1">
          <mxGeometry y="30" width="260" height="60" as="geometry" />
        </mxCell>
        <mxCell id="mcZOrLfcwNk9v_cB0zbB-23" value="&lt;font size=&quot;1&quot; color=&quot;#009900&quot; face=&quot;Verdana&quot; style=&quot;&quot;&gt;&lt;b style=&quot;font-size: 16px;&quot;&gt;Concrete Product A&lt;/b&gt;&lt;/font&gt;" style="swimlane;fontStyle=0;childLayout=stackLayout;horizontal=1;startSize=30;horizontalStack=0;resizeParent=1;resizeParentMax=0;resizeLast=0;collapsible=1;marginBottom=0;whiteSpace=wrap;html=1;fillColor=#d5e8d4;strokeColor=#82b366;strokeWidth=2;" parent="1" vertex="1">
          <mxGeometry x="580" y="440" width="260" height="90" as="geometry" />
        </mxCell>
        <mxCell id="mcZOrLfcwNk9v_cB0zbB-24" value="&lt;font color=&quot;#009900&quot; style=&quot;font-size: 14px;&quot; face=&quot;Verdana&quot;&gt;&lt;b style=&quot;&quot;&gt;decimal &lt;/b&gt;ShippingCosts&lt;/font&gt;" style="text;strokeColor=#82b366;fillColor=#d5e8d4;align=center;verticalAlign=middle;spacingLeft=4;spacingRight=4;overflow=hidden;points=[[0,0.5],[1,0.5]];portConstraint=eastwest;rotatable=0;whiteSpace=wrap;html=1;strokeWidth=2;" parent="mcZOrLfcwNk9v_cB0zbB-23" vertex="1">
          <mxGeometry y="30" width="260" height="60" as="geometry" />
        </mxCell>
        <mxCell id="mcZOrLfcwNk9v_cB0zbB-25" value="" style="endArrow=classic;html=1;rounded=1;exitX=1;exitY=0.5;exitDx=0;exitDy=0;entryX=0;entryY=0.5;entryDx=0;entryDy=0;curved=0;strokeColor=#4C0099;strokeWidth=3;dashed=1;" parent="1" source="mcZOrLfcwNk9v_cB0zbB-10" target="mcZOrLfcwNk9v_cB0zbB-20" edge="1">
          <mxGeometry width="50" height="50" relative="1" as="geometry">
            <mxPoint x="310" y="420" as="sourcePoint" />
            <mxPoint x="360" y="370" as="targetPoint" />
            <Array as="points">
              <mxPoint x="520" y="320" />
              <mxPoint x="520" y="260" />
            </Array>
          </mxGeometry>
        </mxCell>
        <mxCell id="mcZOrLfcwNk9v_cB0zbB-27" value="" style="endArrow=classic;html=1;rounded=1;exitX=1;exitY=0.5;exitDx=0;exitDy=0;entryX=0;entryY=0.5;entryDx=0;entryDy=0;strokeWidth=3;strokeColor=#4C0099;curved=0;dashed=1;" parent="1" source="mcZOrLfcwNk9v_cB0zbB-10" target="mcZOrLfcwNk9v_cB0zbB-18" edge="1">
          <mxGeometry width="50" height="50" relative="1" as="geometry">
            <mxPoint x="310" y="420" as="sourcePoint" />
            <mxPoint x="360" y="370" as="targetPoint" />
            <Array as="points">
              <mxPoint x="520" y="320" />
              <mxPoint x="520" y="380" />
            </Array>
          </mxGeometry>
        </mxCell>
        <mxCell id="mcZOrLfcwNk9v_cB0zbB-28" value="" style="endArrow=none;html=1;rounded=1;entryX=0.5;entryY=0;entryDx=0;entryDy=0;curved=0;strokeWidth=3;strokeColor=#009900;" parent="1" source="mcZOrLfcwNk9v_cB0zbB-22" target="mcZOrLfcwNk9v_cB0zbB-19" edge="1">
          <mxGeometry width="50" height="50" relative="1" as="geometry">
            <mxPoint x="810" y="130" as="sourcePoint" />
            <mxPoint x="810" y="190" as="targetPoint" />
          </mxGeometry>
        </mxCell>
        <mxCell id="mcZOrLfcwNk9v_cB0zbB-29" value="" style="endArrow=none;html=1;rounded=1;entryX=0.5;entryY=0;entryDx=0;entryDy=0;curved=0;strokeWidth=3;strokeColor=#009900;exitX=0.5;exitY=1;exitDx=0;exitDy=0;" parent="1" source="mcZOrLfcwNk9v_cB0zbB-17" target="mcZOrLfcwNk9v_cB0zbB-23" edge="1">
          <mxGeometry width="50" height="50" relative="1" as="geometry">
            <mxPoint x="770" y="420" as="sourcePoint" />
            <mxPoint x="810" y="420" as="targetPoint" />
          </mxGeometry>
        </mxCell>
        <mxCell id="mcZOrLfcwNk9v_cB0zbB-30" value="" style="endArrow=none;html=1;rounded=0;strokeWidth=6;strokeColor=#4C0099;" parent="1" edge="1">
          <mxGeometry width="50" height="50" relative="1" as="geometry">
            <mxPoint x="50" y="614.5" as="sourcePoint" />
            <mxPoint x="90" y="614.5" as="targetPoint" />
          </mxGeometry>
        </mxCell>
        <mxCell id="mcZOrLfcwNk9v_cB0zbB-31" value="&lt;font color=&quot;#4c0099&quot; style=&quot;font-size: 14px;&quot;&gt;&lt;b&gt;Interfaces&lt;/b&gt;&lt;/font&gt;" style="text;html=1;align=center;verticalAlign=middle;whiteSpace=wrap;rounded=0;" parent="1" vertex="1">
          <mxGeometry x="100" y="600" width="100" height="30" as="geometry" />
        </mxCell>
        <mxCell id="mcZOrLfcwNk9v_cB0zbB-32" value="" style="endArrow=none;html=1;rounded=0;strokeWidth=6;strokeColor=#009900;" parent="1" edge="1">
          <mxGeometry width="50" height="50" relative="1" as="geometry">
            <mxPoint x="50" y="634.5" as="sourcePoint" />
            <mxPoint x="90" y="634.5" as="targetPoint" />
          </mxGeometry>
        </mxCell>
        <mxCell id="mcZOrLfcwNk9v_cB0zbB-33" value="&lt;font color=&quot;#009900&quot; style=&quot;font-size: 14px;&quot;&gt;&lt;b&gt;New Instances&lt;/b&gt;&lt;/font&gt;" style="text;html=1;align=center;verticalAlign=middle;whiteSpace=wrap;rounded=0;" parent="1" vertex="1">
          <mxGeometry x="100" y="620" width="100" height="30" as="geometry" />
        </mxCell>
      </root>
    </mxGraphModel>
  </diagram>
</mxfile>
